<?xml version="1.0" encoding="UTF-8" standalone="no"?>
<!DOCTYPE svg PUBLIC "-//W3C//DTD SVG 1.1//EN"
 "http://www.w3.org/Graphics/SVG/1.1/DTD/svg11.dtd">
<!-- Generated by graphviz version 2.40.1 (20161225.0304)
 -->
<!-- Title: cms Pages: 1 -->
<svg width="704pt" height="219pt"
 viewBox="0.00 0.00 704.00 219.00" xmlns="http://www.w3.org/2000/svg" xmlns:xlink="http://www.w3.org/1999/xlink">
<g id="graph0" class="graph" transform="scale(1 1) rotate(0) translate(4 215)">
<title>cms</title>
<polygon fill="#ffffff" stroke="transparent" points="-4,4 -4,-215 700,-215 700,4 -4,4"/>
<!-- contents -->
<g id="node1" class="node">
<title>contents</title>
<polygon fill="#efefef" stroke="transparent" points="43.5,-132.5 43.5,-167.5 252.5,-167.5 252.5,-132.5 43.5,-132.5"/>
<polygon fill="none" stroke="#000000" points="43.5,-132.5 43.5,-167.5 252.5,-167.5 252.5,-132.5 43.5,-132.5"/>
<text text-anchor="start" x="50.2014" y="-145.3" font-family="Arial Bold" font-size="18.00" fill="#000000">contents</text>
<text text-anchor="start" x="118.2306" y="-145.3" font-family="Arial" font-size="14.00" fill="#000000">    </text>
<text text-anchor="start" x="152.4354" y="-145.3" font-family="Arial" font-size="14.00" fill="#666666">[BASE TABLE]</text>
<polygon fill="none" stroke="#000000" points="43.5,-102.5 43.5,-132.5 252.5,-132.5 252.5,-102.5 43.5,-102.5"/>
<text text-anchor="start" x="50.5" y="-113.9" font-family="Arial" font-size="14.00" fill="#000000">id    </text>
<text text-anchor="start" x="95.594" y="-113.9" font-family="Arial" font-size="14.00" fill="#666666">[char(36)]</text>
<polygon fill="none" stroke="#000000" points="43.5,-72.5 43.5,-102.5 252.5,-102.5 252.5,-72.5 43.5,-72.5"/>
<text text-anchor="start" x="50.5" y="-83.9" font-family="Arial" font-size="14.00" fill="#000000">title    </text>
<text text-anchor="start" x="106.4818" y="-83.9" font-family="Arial" font-size="14.00" fill="#666666">[varchar(255)]</text>
<polygon fill="none" stroke="#000000" points="43.5,-42.5 43.5,-72.5 252.5,-72.5 252.5,-42.5 43.5,-42.5"/>
<text text-anchor="start" x="50.5" y="-53.9" font-family="Arial" font-size="14.00" fill="#000000">body    </text>
<text text-anchor="start" x="115.0526" y="-53.9" font-family="Arial" font-size="14.00" fill="#666666">[text]</text>
</g>
<!-- schema_migrations -->
<g id="node2" class="node">
<title>schema_migrations</title>
<polygon fill="#efefef" stroke="transparent" points="356.5,-117.5 356.5,-152.5 653.5,-152.5 653.5,-117.5 356.5,-117.5"/>
<polygon fill="none" stroke="#000000" points="356.5,-117.5 356.5,-152.5 653.5,-152.5 653.5,-117.5 356.5,-117.5"/>
<text text-anchor="start" x="363.2076" y="-130.3" font-family="Arial Bold" font-size="18.00" fill="#000000">schema_migrations</text>
<text text-anchor="start" x="519.2244" y="-130.3" font-family="Arial" font-size="14.00" fill="#000000">    </text>
<text text-anchor="start" x="553.4292" y="-130.3" font-family="Arial" font-size="14.00" fill="#666666">[BASE TABLE]</text>
<polygon fill="none" stroke="#000000" points="356.5,-87.5 356.5,-117.5 653.5,-117.5 653.5,-87.5 356.5,-87.5"/>
<text text-anchor="start" x="363.5" y="-98.9" font-family="Arial" font-size="14.00" fill="#000000">version    </text>
<text text-anchor="start" x="442.8198" y="-98.9" font-family="Arial" font-size="14.00" fill="#666666">[bigint]</text>
<polygon fill="none" stroke="#000000" points="356.5,-57.5 356.5,-87.5 653.5,-87.5 653.5,-57.5 356.5,-57.5"/>
<text text-anchor="start" x="363.5" y="-68.9" font-family="Arial" font-size="14.00" fill="#000000">dirty    </text>
<text text-anchor="start" x="424.1452" y="-68.9" font-family="Arial" font-size="14.00" fill="#666666">[tinyint(1)]</text>
</g>
</g>
</svg>
